<?xml version="1.0" encoding="utf-8"?>
<!-- Generator: Adobe Illustrator 16.0.0, SVG Export Plug-In . SVG Version: 6.00 Build 0)  -->
<!DOCTYPE svg PUBLIC "-//W3C//DTD SVG 1.1//EN" "http://www.w3.org/Graphics/SVG/1.1/DTD/svg11.dtd">
<svg version="1.1" id="Layer_1" xmlns="http://www.w3.org/2000/svg" xmlns:xlink="http://www.w3.org/1999/xlink" x="0px" y="0px"
	 width="412.515px" height="384px" viewBox="0 0 412.515 384" enable-background="new 0 0 412.515 384" xml:space="preserve">
<path fill-rule="evenodd" clip-rule="evenodd" fill="#2AACE3" d="M199.974,304.052c0-5.489,0-10.581,0-15.845
	c3.573,0,6.952,0,10.533,0c0,5.155,0,10.244,0,15.635c1.348,0,2.512,0.088,3.66-0.014c8.133-0.721,16.152-2.082,23.973-4.475
	c24.75-7.572,44.793-21.812,60.139-42.635c1.109-1.506,2.211-2.166,4.113-2.133c6.717,0.119,13.438,0.047,20.156,0.047
	c0.848,0,1.693,0,2.703,0c-18.389,35.445-59.666,68.681-112.951,71.236c-60.897,2.92-106.676-32.832-126.951-70.953
	c0.564-0.102,1.071-0.27,1.577-0.271c7.359-0.018,14.718,0.04,22.076-0.054c1.561-0.02,2.256,0.779,3.04,1.853
	c12.088,16.565,27.45,29.132,46.131,37.61c10.624,4.82,21.761,7.836,33.324,9.285C194.184,303.677,196.897,303.8,199.974,304.052z"
	/>
<path fill-rule="evenodd" clip-rule="evenodd" fill="#2AACE3" d="M210.63,74.25c0,5.008,0,10.091,0,15.341
	c-3.562,0-6.882,0-10.552,0c-0.146-2.528-0.048-5.135-0.066-7.734c-0.018-2.54-0.004-5.08-0.004-7.824
	c-2.474,0.17-4.694,0.22-6.887,0.488c-33.849,4.137-60.926,19.927-81.25,47.301c-0.625,0.842-1.139,1.586-2.441,1.572
	c-7.757-0.073-15.515-0.041-23.272-0.053c-0.214,0-0.427-0.102-0.654-0.16c16.02-31.673,56.772-69.401,115.763-71.143
	c57.841-1.708,103.681,32.55,123.913,71.201c-0.758,0.044-1.436,0.117-2.113,0.118c-7.037,0.008-14.076-0.059-21.111,0.051
	c-1.672,0.026-2.588-0.613-3.508-1.874c-12.689-17.396-28.945-30.331-48.785-38.711c-11.27-4.76-23.012-7.634-35.23-8.505
	c-1.035-0.074-2.068-0.182-3.105-0.256C211.181,74.051,211.029,74.138,210.63,74.25z"/>
<path fill-rule="evenodd" clip-rule="evenodd" d="M5.609,140.862c1.798,0.136,3.599,0.247,5.394,0.413
	c11.46,1.061,22.916,2.159,34.378,3.197c11.382,1.031,22.772,1.984,34.154,3.014c9.711,0.878,19.415,1.836,29.125,2.72
	c7.8,0.71,15.607,1.341,23.407,2.044c7.96,0.719,15.915,1.493,23.874,2.228c5.809,0.536,11.616,1.126,17.436,1.521
	c1.685,0.115,2.768,0.695,3.782,2.006c7.484,9.681,15.031,19.313,22.562,28.955c0.462,0.592,0.966,1.15,1.835,1.472
	c-0.401-0.731-0.773-1.479-1.207-2.19c-6.233-10.244-12.449-20.499-18.745-30.705c-0.835-1.354-1.003-2.457-0.419-3.969
	c3.195-8.271,6.273-16.586,9.397-24.883c0.251-0.67,0.55-1.32,0.892-2.134c3.509-0.528,7.078-0.905,10.574-1.635
	c3.662-0.765,7.137,0.291,10.683,0.653c2.061,0.211,4.102,0.623,6.371,0.979c0.297,0.689,0.668,1.467,0.971,2.269
	c3.129,8.296,6.201,16.612,9.412,24.878c0.564,1.453,0.373,2.475-0.402,3.736c-6.285,10.213-12.506,20.464-18.742,30.707
	c-0.439,0.723-0.84,1.472-0.947,2.445c0.43-0.482,0.887-0.945,1.285-1.453c7.533-9.643,15.088-19.268,22.557-28.959
	c1.129-1.465,2.328-2.059,4.186-2.186c6.057-0.418,12.096-1.098,18.145-1.649c6.209-0.565,12.422-1.091,18.631-1.651
	c6.049-0.545,12.096-1.115,18.145-1.669c6.127-0.561,12.258-1.114,18.387-1.671c6.287-0.572,12.574-1.15,18.861-1.714
	c6.289-0.563,12.582-1.099,18.869-1.668c6.051-0.548,12.096-1.133,18.145-1.682c6.289-0.57,12.58-1.11,18.869-1.677
	c5.969-0.537,11.938-1.092,17.906-1.637c0.523-0.047,1.049-0.07,2.059-0.137c-0.758,0.641-1.133,1.012-1.559,1.31
	c-8.262,5.765-16.557,11.482-24.771,17.313c-1.604,1.138-3.379,1.392-5.154,1.741c-26.854,5.299-53.713,10.57-80.574,15.833
	c-22.32,4.373-44.643,8.727-66.963,13.093c-0.932,0.183-1.852,0.413-2.748,0.816c9.717-1.162,19.361-2.812,29.031-4.279
	c9.787-1.484,19.555-3.109,29.336-4.65c9.701-1.528,19.408-3.021,29.111-4.541c9.781-1.531,19.563-3.076,29.344-4.615
	c9.744-1.533,19.49-3.065,29.375-4.217c-0.512,0.319-1.014,0.654-1.537,0.957c-6.221,3.605-12.453,7.193-18.664,10.818
	c-1.133,0.66-2.287,0.982-3.607,1.09c-6.053,0.496-12.094,1.104-18.143,1.658c-6.127,0.561-12.258,1.101-18.387,1.658
	c-6.207,0.564-12.412,1.144-18.619,1.709c-6.049,0.553-12.098,1.094-18.146,1.643c-6.287,0.57-12.572,1.146-18.859,1.719
	c-5.971,0.543-11.939,1.091-17.908,1.628c-5.961,0.536-11.922,1.063-17.875,1.802c13.154-0.154,26.293-0.863,39.439-1.317
	c13.186-0.456,26.363-1.134,39.547-1.683c13.26-0.551,26.521-1.061,39.859-1.298c-0.992,0.278-1.977,0.591-2.979,0.831
	c-13.191,3.157-26.385,6.309-39.58,9.443c-0.766,0.181-1.576,0.318-2.352,0.271c-8.857-0.539-17.713-1.133-26.568-1.681
	c-6.145-0.38-12.293-0.698-18.438-1.069c-6.943-0.418-13.885-0.863-20.826-1.299c-3.113-0.195-6.223-0.404-9.336-0.585
	c-0.543-0.032-1.094,0.048-1.648,0.326c22.234,2.622,44.467,5.245,66.699,7.868c0.002,0.117,0.002,0.233,0.002,0.351
	c-2.904,0.464-5.803,0.958-8.713,1.388c-5.924,0.875-11.861,1.666-17.773,2.611c-1.334,0.213-2.518,0.012-3.746-0.328
	c-12.146-3.367-24.293-6.734-36.441-10.098c-0.369-0.104-0.752-0.165-1.268,0.166c10.518,3.814,21.035,7.63,31.553,11.444
	c-0.006,0.134-0.012,0.269-0.018,0.403c-0.4,0.074-0.799,0.189-1.201,0.218c-2.553,0.184-5.107,0.302-7.654,0.538
	c-1.26,0.117-2.32-0.203-3.418-0.789c-5.99-3.197-12.01-6.338-18.021-9.494c-0.76-0.399-1.533-0.773-2.51-0.813
	c6.045,3.83,12.09,7.659,18.135,11.488c-0.031,0.177-0.063,0.354-0.094,0.53c-2.104,0-4.23-0.202-6.305,0.048
	c-3.002,0.362-5.162-0.596-6.951-3.031c-1.361-1.855-3.092-3.439-4.977-4.938c0.355,0.542,0.674,1.116,1.076,1.624
	c5.553,7.028,11.094,14.065,16.699,21.052c0.957,1.192,1.428,2.37,1.344,3.911c-0.25,4.607-0.393,9.221-0.803,13.915
	c-6.881-12.567-13.293-25.353-19.924-38.02c-0.15,0.069-0.299,0.138-0.447,0.206c6.756,15.189,13.512,30.379,20.377,45.813
	c-7.613,4.896-15.174,9.756-23.157,14.887c-0.477-10.563-0.771-20.729-1.078-30.894c-0.307-10.148-0.706-20.294-1.374-30.525
	c-0.107,0.604-0.29,1.206-0.31,1.812c-0.236,7.434-0.422,14.869-0.674,22.302c-0.407,11.987-0.853,23.974-1.289,35.96
	c-0.011,0.302-0.095,0.602-0.202,1.246c-7.742-4.969-15.308-9.824-23.024-14.775c6.958-15.633,13.859-31.138,20.76-46.643
	c-0.138-0.066-0.276-0.135-0.414-0.201c-6.688,12.974-13.375,25.947-20.333,39.444c-0.199-0.849-0.306-1.112-0.316-1.381
	c-0.167-4.315-0.268-8.633-0.508-12.943c-0.091-1.624,0.361-2.873,1.379-4.14c5.563-6.917,11.05-13.896,16.556-20.859
	c0.422-0.533,0.791-1.109,0.838-1.947c-1.633,1.782-3.416,3.452-4.859,5.377c-1.657,2.209-3.627,3.061-6.358,2.75
	c-2.133-0.243-4.311-0.103-6.468-0.141c-0.046-0.001-0.09-0.104-0.327-0.395c6.1-3.865,12.175-7.715,18.25-11.565
	c-0.059-0.109-0.117-0.219-0.175-0.328c-0.683,0.325-1.377,0.628-2.046,0.979c-6.152,3.232-12.308,6.457-18.441,9.725
	c-1.02,0.543-2.006,0.86-3.186,0.758c-2.986-0.261-5.98-0.428-8.97-0.632c-0.034-0.171-0.068-0.341-0.103-0.512
	c10.56-3.83,21.12-7.66,31.68-11.49c-0.039-0.136-0.078-0.272-0.117-0.407c-0.98,0.23-1.97,0.43-2.941,0.697
	c-11.381,3.145-22.764,6.282-34.132,9.472c-1.713,0.481-3.358,0.73-5.155,0.45c-7.967-1.242-15.951-2.383-23.926-3.574
	c-0.621-0.092-1.225-0.289-1.836-0.705c22.244-2.623,44.487-5.246,66.73-7.87c-0.004-0.101-0.009-0.201-0.014-0.302
	c-0.705,0-1.413-0.039-2.116,0.006c-11.569,0.729-23.136,1.496-34.706,2.2c-9.417,0.573-18.838,1.063-28.256,1.616
	c-3.511,0.207-7.016,0.545-10.528,0.708c-1.414,0.065-2.886,0.007-4.257-0.315c-13.435-3.165-26.854-6.396-40.275-9.617
	c-0.528-0.127-1.035-0.343-1.52-0.826c39.614,1.618,79.228,3.236,118.842,4.854c0.01-0.133,0.02-0.268,0.03-0.4
	c-1.75-0.191-3.499-0.412-5.252-0.567c-6.049-0.538-12.103-1.033-18.151-1.581c-6.208-0.563-12.411-1.182-18.618-1.75
	c-5.969-0.547-11.941-1.047-17.91-1.588c-6.288-0.57-12.572-1.172-18.859-1.745c-5.968-0.544-11.939-1.062-17.907-1.604
	c-6.367-0.578-12.731-1.175-19.098-1.756c-4.138-0.379-8.28-0.711-12.413-1.14c-1.001-0.104-2.078-0.321-2.937-0.808
	c-6.672-3.785-13.299-7.646-19.938-11.489c-0.252-0.146-0.481-0.333-0.602-0.888c48.673,7.645,97.347,15.291,146.021,22.937
	c0.029-0.157,0.058-0.313,0.086-0.47c-3.438-0.688-6.875-1.387-10.316-2.063c-17.541-3.443-35.084-6.881-52.625-10.322
	c-14.252-2.797-28.503-5.602-42.755-8.398c-13.474-2.645-26.948-5.283-40.422-7.927c-1.723-0.339-3.429-0.814-5.167-1
	c-2.005-0.214-3.6-1.149-5.189-2.263c-7.726-5.414-15.479-10.79-23.217-16.187c-0.623-0.435-1.209-0.921-1.812-1.382
	C5.503,141.074,5.556,140.969,5.609,140.862z M204.976,158.496c0.17,0.01,0.34,0.021,0.51,0.031
	c1.964-6.403,3.928-12.807,5.898-19.234c-2.148-1.834-4.128-3.523-6.178-5.273c-2.146,1.858-4.117,3.566-6.126,5.307
	C201.076,145.818,203.026,152.156,204.976,158.496z M192.879,134.374c1.797,0.247,3.603,0.496,5.407,0.745
	c-0.87-1.385-1.456-2.959-3.336-2.592C193.975,132.717,192.815,132.73,192.879,134.374z M213.353,135.252
	c2.281-0.367,4.078-0.658,5.979-0.964C217.843,131.648,215.933,131.916,213.353,135.252z"/>
<path fill-rule="evenodd" clip-rule="evenodd" fill="#FFFFFF" d="M204.976,158.496c-1.95-6.34-3.9-12.678-5.896-19.17
	c2.01-1.74,3.98-3.448,6.126-5.307c2.05,1.75,4.03,3.439,6.178,5.273c-1.971,6.428-3.935,12.831-5.898,19.234
	C205.316,158.517,205.146,158.506,204.976,158.496z M203.854,142.174c-0.249-0.885-0.318-1.555-0.631-2.078
	c-0.173-0.291-0.745-0.42-1.152-0.458c-0.188-0.018-0.601,0.383-0.581,0.554c0.048,0.408,0.193,0.917,0.485,1.156
	C202.376,141.678,202.951,141.797,203.854,142.174z M206.661,141.739c0.132,0.091,0.264,0.182,0.396,0.272
	c0.56-0.262,1.236-0.41,1.639-0.825c0.258-0.266,0.114-0.923,0.149-1.404c-0.499,0.025-1.228-0.143-1.447,0.118
	C206.994,140.381,206.89,141.112,206.661,141.739z"/>
<path fill-rule="evenodd" clip-rule="evenodd" fill="#FFFFFF" d="M192.879,134.374c-0.064-1.644,1.096-1.657,2.071-1.847
	c1.88-0.367,2.466,1.207,3.336,2.592C196.481,134.87,194.676,134.621,192.879,134.374z"/>
<path fill-rule="evenodd" clip-rule="evenodd" fill="#FFFFFF" d="M213.353,135.252c2.58-3.336,4.49-3.604,5.979-0.964
	C217.431,134.594,215.634,134.885,213.353,135.252z"/>
<path fill-rule="evenodd" clip-rule="evenodd" d="M203.854,142.174c-0.902-0.377-1.477-0.496-1.879-0.826
	c-0.292-0.239-0.437-0.748-0.485-1.156c-0.02-0.171,0.394-0.571,0.581-0.554c0.407,0.038,0.979,0.167,1.152,0.458
	C203.535,140.619,203.604,141.289,203.854,142.174z"/>
<path fill-rule="evenodd" clip-rule="evenodd" d="M206.661,141.739c0.229-0.627,0.333-1.358,0.736-1.839
	c0.22-0.261,0.948-0.093,1.447-0.118c-0.036,0.481,0.109,1.139-0.149,1.404c-0.403,0.415-1.079,0.563-1.639,0.825
	C206.925,141.921,206.793,141.83,206.661,141.739z"/>
</svg>
